# xmcd
#
# Track frame offsets:
#	150
#	14477
#	34192
#	49396
#	59060
#	68736
#	76881
#	90799
#	103112
#	114433
#	128500
#	143500
#	156227
#	164011
#	175825
#	188727
#	196925
#	209030
#	219814
#	230984
#
# Disc length: 3234
#
# Revision: 3
# Processed by: cddbd v1.5.1PL0 Copyright (c) Steve Scherf et al.
# Submitted via: audiograbber 1.82.02
# Normalized: r2:DSETVAR1
#
DISCID=1a0ca014
DTITLE=Various Artist - Ultimate Country Box 3
DYEAR=1900
DGENRE=Country
TTITLE0=Conway Twitty - You've Never Been This Far Before
TTITLE1=The Bellamy Brothers - If I Said You Had A Beautiful Body
TTITLE2=Billy Jo Spears - Blanket On The Ground
TTITLE3=Glen Campbell - Gentle On My Mind
TTITLE4=Johnny Cash - Ballad Of A Teenage Queen
TTITLE5=Roger Miller - In The Summertime
TTITLE6=Willie Nelson - Home Is Where You're Happy
TTITLE7=Jeanne Pruett - Satin Sheets
TTITLE8=Tammy Wynette - D.i.v.o.r.c.e. (Live)
TTITLE9=Barbara Fairchild - Teddy Bear Song
TTITLE10=Anne Murray - There Goes My Everything
TTITLE11=Leroy Van Dyke - The Auctioneer
TTITLE12=George Jones - Jambalaya
TTITLE13=Kenny Rogers - Blue Blue Day
TTITLE14=Charlie Rich - The Most Beautiful Girl
TTITLE15=Don Gibson - Blue Blue Day
TTITLE16=Jody Miller - Queen Of The House
TTITLE17=Guy Mitchell - Singing The Blues
TTITLE18=Waylon Jennings - Crying
TTITLE19=Freddy Fender - Before The Next Teardrop Falls
EXTD=ID3G: 2
EXTT0=
EXTT1=
EXTT2=
EXTT3=
EXTT4=
EXTT5=
EXTT6=
EXTT7=
EXTT8=
EXTT9=
EXTT10=
EXTT11=
EXTT12=
EXTT13=
EXTT14=
EXTT15=
EXTT16=
EXTT17=
EXTT18=
EXTT19=
PLAYORDER=
